<svg aria-hidden="true" style="position: absolute; width: 0; height: 0; overflow: hidden;" version="1.1" xmlns="http://www.w3.org/2000/svg" xmlns:xlink="http://www.w3.org/1999/xlink">
<defs>
<symbol id="icon-Ellipse" viewBox="0 0 65 32">
<path d="M32.14 10.197c-12.143 0-21.987 9.625-21.987 21.498h-10.148c0-17.353 14.387-31.421 32.135-31.421s32.135 14.067 32.135 31.421h-10.148c0-11.873-9.844-21.498-21.987-21.498z"></path>
</symbol>
<symbol id="icon-facebook" viewBox="0 0 32 32">
<path d="M17.863 27.996v-10.928h3.687l0.548-4.279h-4.235v-2.725c0-1.235 0.344-2.080 2.116-2.080h2.245v-3.815c-1.092-0.117-2.191-0.174-3.289-0.169-3.259 0-5.496 1.989-5.496 5.641v3.14h-3.663v4.279h3.671v10.936h4.416z"></path>
</symbol>
<symbol id="icon-icon-1" viewBox="0 0 32 32">
<path d="M3 6.5h-1v-2.5h2.5v1h-1.5v1.5z"></path>
<path d="M21 26h-1v-1h1v1zM19 26h-1v-1h1v1zM17 26h-1v-1h1v1zM15 26h-1v-1h1v1zM13 26h-1v-1h1v1zM11 26h-1v-1h1v1zM9 26h-1v-1h1v1zM7 26h-1v-1h1v1zM5 26h-1v-1h1v1zM3 26h-1v-1h1v1z"></path>
<path d="M21 28h-1v-1h1v1zM19 28h-1v-1h1v1zM17 28h-1v-1h1v1zM15 28h-1v-1h1v1zM13 28h-1v-1h1v1zM11 28h-1v-1h1v1zM9 28h-1v-1h1v1zM7 28h-1v-1h1v1zM5 28h-1v-1h1v1zM3 28h-1v-1h1v1z"></path>
<path d="M26 4h4v1h-4v-1z"></path>
<path d="M26 6h4v1h-4v-1z"></path>
<path d="M26 8h4v1h-4v-1z"></path>
<path d="M21 11h-2.5v-1h1.5v-1.5h1v2.5z"></path>
<path d="M30.5 2h-5c-0.828 0-1.5 0.672-1.5 1.5v17.5h8v-17.5c0-0.828-0.672-1.5-1.5-1.5zM31 20h-6v-16.5c0-0.276 0.224-0.5 0.5-0.5h5c0.276 0 0.5 0.224 0.5 0.5v16.5z"></path>
<path d="M21.5 23h-20c-0.828 0-1.5 0.672-1.5 1.5v4c0 0.828 0.672 1.5 1.5 1.5h20c0.828 0 1.5-0.672 1.5-1.5v-4c0-0.828-0.672-1.5-1.5-1.5zM22 28.5c0 0.276-0.224 0.5-0.5 0.5h-20c-0.276 0-0.5-0.224-0.5-0.5v-4c0-0.276 0.224-0.5 0.5-0.5h20c0.276 0 0.5 0.224 0.5 0.5v4z"></path>
<path d="M27.5 23c-1.38 0.002-2.498 1.12-2.5 2.5v2c0 1.381 1.119 2.5 2.5 2.5s2.5-1.119 2.5-2.5v-2c-0.002-1.38-1.12-2.498-2.5-2.5zM29 27.5c0 0.828-0.672 1.5-1.5 1.5s-1.5-0.672-1.5-1.5v-2c0.003-0.633 0.403-1.197 1-1.408v1.908h1v-1.908c0.597 0.211 0.997 0.775 1 1.408v2z"></path>
<path d="M21.5 2h-20c-0.828 0-1.5 0.672-1.5 1.5v12c0 0.828 0.672 1.5 1.5 1.5h7v2.084c-0 0.506-0.411 0.916-0.917 0.916h-1.583v1h10v-1h-1.584c-0.506-0-0.916-0.411-0.916-0.916v-2.084h8c0.828 0 1.5-0.672 1.5-1.5v-12c0-0.828-0.672-1.5-1.5-1.5zM9.266 20c0.154-0.281 0.234-0.596 0.234-0.916v-2.084h1v2.125h1v-2.125h1v2.084c-0 0.32 0.080 0.636 0.234 0.916h-3.468zM22 15.5c0 0.276-0.224 0.5-0.5 0.5h-20c-0.276 0-0.5-0.224-0.5-0.5v-2.5h21v2.5zM22 12h-21v-8.5c0-0.276 0.224-0.5 0.5-0.5h20c0.276 0 0.5 0.224 0.5 0.5v8.5z"></path>
<path d="M28.5 15.071v-1.071h-1v1.071c-0.975 0.252-1.611 1.189-1.484 2.188s0.977 1.748 1.984 1.748c1.007 0 1.857-0.749 1.984-1.748s-0.509-1.937-1.484-2.188zM28 18c-0.452 0.001-0.848-0.302-0.965-0.738s0.074-0.897 0.465-1.123v0.861h1v-0.861c0.392 0.226 0.583 0.686 0.465 1.123s-0.513 0.739-0.965 0.738z"></path>
<path d="M10.5 14h1v1h-1v-1z"></path>
</symbol>
<symbol id="icon-icon-2" viewBox="0 0 32 32">
<path d="M14 2h1v4h-1v-4z"></path>
<path d="M17 2h1v4h-1v-4z"></path>
<path d="M21 7v-7h-10v7h-2v25h14v-25h-2zM12 1h8v6h-8v-6zM22 31h-12v-23h12v23z"></path>
<path d="M12 19.908v2.922l3.5 1.5v1.762c-0.689 0.243-1.102 0.948-0.979 1.668s0.748 1.246 1.479 1.246 1.355-0.526 1.479-1.246c0.124-0.72-0.29-1.424-0.979-1.668v-3.624l3.5-3.25v-2.218h1v-3h-3v3h1v1.782l-2.5 2.322v-9.229l0.979 0.979 0.707-0.707-2.186-2.186-2.186 2.186 0.707 0.707 0.979-0.979v11.367l-2.5-1.072v-2.262c0.689-0.243 1.102-0.948 0.979-1.668s-0.748-1.246-1.479-1.246-1.355 0.526-1.479 1.246c-0.124 0.72 0.29 1.424 0.979 1.668zM19 15h1v1h-1v-1zM16 27c0.276 0 0.5 0.224 0.5 0.5s-0.224 0.5-0.5 0.5c-0.276 0-0.5-0.224-0.5-0.5s0.224-0.5 0.5-0.5zM12.5 18c0.276 0 0.5 0.224 0.5 0.5s-0.224 0.5-0.5 0.5c-0.276 0-0.5-0.224-0.5-0.5s0.224-0.5 0.5-0.5z"></path>
</symbol>
<symbol id="icon-icon-3" viewBox="0 0 32 32">
<path d="M3 3h1v1h-1v-1z"></path>
<path d="M3 5h1v1h-1v-1z"></path>
<path d="M28 26h1v1h-1v-1z"></path>
<path d="M28 28h1v1h-1v-1z"></path>
<path d="M27 23h-7.5c-0.828 0-1.5 0.672-1.5 1.5v1.5h-3v1h-8.75c-2.899 0-5.25-2.351-5.25-5.25s2.351-5.25 5.25-5.25h19.5c3.452 0 6.25-2.798 6.25-6.25s-2.798-6.25-6.25-6.25h-8.75v-1h-3v-1.5c0-0.828-0.672-1.5-1.5-1.5h-7.5v1h-5v7h5v1h7.5c0.828 0 1.5-0.672 1.5-1.5v-1.5h3v-1h8.75c2.899 0 5.25 2.351 5.25 5.25s-2.351 5.25-5.25 5.25h-19.5c-3.452 0-6.25 2.798-6.25 6.25s2.798 6.25 6.25 6.25h8.75v1h3v1.5c0 0.828 0.672 1.5 1.5 1.5h7.5v-1h5v-7h-5v-1zM5 7h-4v-5h4v5zM13 3v4.5c0 0.276-0.224 0.5-0.5 0.5h-6.5v-7h6.5c0.276 0 0.5 0.224 0.5 0.5v1.5zM16 5h-2v-1h2v1zM18 28h-2v-1h2v1zM26 31h-6.5c-0.276 0-0.5-0.224-0.5-0.5v-6c0-0.276 0.224-0.5 0.5-0.5h6.5v7zM31 25v5h-4v-5h4z"></path>
</symbol>
<symbol id="icon-instagram" viewBox="0 0 32 32">
<path d="M22 0h-12c-5.522 0-10 4.478-10 10v12c0 5.522 4.478 10 10 10h12c5.522 0 10-4.478 10-10v-12c0-5.522-4.478-10-10-10zM29 22c0 3.86-3.14 7-7 7h-12c-3.86 0-7-3.14-7-7v-12c0-3.86 3.14-7 7-7h12c3.86 0 7 3.14 7 7v12z"></path>
<path d="M16 8c-4.418 0-8 3.582-8 8s3.582 8 8 8c4.418 0 8-3.582 8-8s-3.582-8-8-8zM16 21c-2.756 0-5-2.244-5-5 0-2.758 2.244-5 5-5s5 2.242 5 5c0 2.756-2.244 5-5 5z"></path>
<path d="M24.597 8.467c0.589 0 1.066-0.477 1.066-1.066s-0.477-1.066-1.066-1.066c-0.589 0-1.066 0.477-1.066 1.066s0.477 1.066 1.066 1.066z"></path>
</symbol>
<symbol id="icon-logo" viewBox="0 0 32 32">
<path d="M31.922 29.909l-1.358-4.792c-0.268-0.944-0.219-1.954 0.166-2.857 0.891-2.091 1.348-4.408 1.261-6.841-0.302-8.45-7.248-15.265-15.701-15.416-9.066-0.161-16.448 7.221-16.287 16.287 0.151 8.453 6.966 15.399 15.413 15.701 2.127 0.075 4.164-0.265 6.041-0.947 1.494-0.543 3.118-0.635 4.646-0.2l3.802 1.081c1.229 0.35 2.366-0.786 2.018-2.015zM8.852 16c0-3.948 3.2-7.148 7.148-7.148s7.148 3.2 7.148 7.148c0 3.948-3.2 7.148-7.148 7.148s-7.148-3.2-7.148-7.148z"></path>
<path d="M30.313 23.216c0 0-0.056-0.178-0.166-0.494-0.852-2.414-4.994-12.868-13.184-13.802 3.493 0.47 6.184 3.461 6.184 7.080 0 3.948-3.2 7.148-7.148 7.148v8.849c1.915 0 3.753-0.333 5.457-0.952 1.494-0.543 3.118-0.635 4.646-0.2l3.802 1.081c1.229 0.348 2.366-0.786 2.018-2.018l-1.358-4.792c-0.161-0.562-0.204-1.151-0.134-1.723l-0.117-0.178z"></path>
</symbol>
<symbol id="icon-msi" viewBox="0 0 68 32">
<path d="M0 0h68.129v32h-68.129v-32z"></path>
</symbol>
<symbol id="icon-vk" viewBox="0 0 32 32">
<path d="M28.483 19.677c0 0 2.587 2.555 3.227 3.738 0.012 0.017 0.022 0.036 0.029 0.056 0.261 0.437 0.325 0.779 0.197 1.032-0.216 0.418-0.947 0.627-1.195 0.645h-4.573c-0.318 0-0.981-0.083-1.787-0.64-0.616-0.43-1.229-1.139-1.822-1.832-0.886-1.029-1.653-1.922-2.429-1.922-0.098-0-0.195 0.016-0.288 0.048-0.587 0.186-1.333 1.022-1.333 3.251 0 0.698-0.55 1.094-0.936 1.094h-2.094c-0.714 0-4.429-0.25-7.723-3.723-4.037-4.253-7.662-12.784-7.698-12.859-0.226-0.552 0.248-0.853 0.76-0.853h4.618c0.619 0 0.821 0.374 0.962 0.71 0.163 0.386 0.768 1.928 1.76 3.661 1.606 2.819 2.594 3.966 3.382 3.966 0.148 0 0.294-0.038 0.422-0.112 1.030-0.566 0.838-4.246 0.79-5.005 0-0.147-0.002-1.643-0.53-2.366-0.378-0.518-1.021-0.72-1.41-0.794 0.104-0.15 0.325-0.381 0.608-0.517 0.706-0.352 1.981-0.403 3.246-0.403h0.702c1.373 0.019 1.728 0.107 2.227 0.234 1.005 0.24 1.024 0.891 0.936 3.109-0.026 0.634-0.053 1.347-0.053 2.187 0 0.179-0.008 0.379-0.008 0.582-0.030 1.138-0.070 2.419 0.733 2.946 0.104 0.065 0.225 0.099 0.347 0.099 0.278 0 1.112 0 3.373-3.88 0.992-1.714 1.76-3.734 1.813-3.886 0.045-0.085 0.179-0.323 0.342-0.419 0.116-0.062 0.246-0.093 0.378-0.090h5.432c0.592 0 0.994 0.090 1.072 0.314 0.131 0.363-0.026 1.472-2.506 4.826-0.418 0.558-0.784 1.042-1.106 1.464-2.248 2.95-2.248 3.099 0.133 5.339z"></path>
</symbol>
<symbol id="icon-youtube" viewBox="0 0 32 32">
<path d="M29.41 9.261c-0.159-0.592-0.471-1.132-0.905-1.565s-0.973-0.745-1.565-0.905c-2.18-0.59-10.94-0.59-10.94-0.59s-8.76 0-10.94 0.59c-0.592 0.159-1.132 0.471-1.565 0.905s-0.746 0.973-0.905 1.565c-0.407 2.223-0.605 4.48-0.59 6.74-0.015 2.26 0.183 4.517 0.59 6.74 0.159 0.592 0.471 1.132 0.905 1.565s0.973 0.745 1.565 0.905c2.18 0.59 10.94 0.59 10.94 0.59s8.76 0 10.94-0.59c0.592-0.159 1.132-0.471 1.565-0.905s0.746-0.973 0.905-1.565c0.407-2.223 0.605-4.48 0.59-6.74 0.015-2.26-0.183-4.517-0.59-6.74zM13.2 20.201v-8.4l7.27 4.2-7.27 4.2z"></path>
</symbol>
</defs>
</svg>
